<svg width="560" height="520" viewBox="0 0 560 520" xmlns="http://www.w3.org/2000/svg" xmlns:c2pa="http://c2pa.org/manifest"><metadata><c2pa:manifest>AAAWgmp1bWIAAAAeanVtZGMycGEAEQAQgAAAqgA4m3EDYzJwYQAAABZcanVtYgAAAEdqdW1kYzJtYQARABCAAACqADibcQN1cm46YzJwYTphYzBhMmMxYy1mNTA0LTQ0MmItYmI3OS1hYzdlN2Y2N2Y5NjUAAAADl2p1bWIAAAApanVtZGMyYXMAEQAQgAAAqgA4m3EDYzJwYS5hc3NlcnRpb25zAAAAALxqdW1iAAAARGp1bWRjYm9yABEAEIAAAKoAOJtxE2MycGEuaW5ncmVkaWVudC52MwAAAAAYYzJzaLxFjTHaxP0zuKP7LVjemxwAAABwY2JvcqNpZGM6Zm9ybWF0bWltYWdlL3N2Zyt4bWxqaW5zdGFuY2VJRHgseG1wOmlpZDo5MDU5YTdkOC1hMDkxLTRlOWUtYTNiOC1iYzIxZjBjMjY2MDhscmVsYXRpb25zaGlwaHBhcmVudE9mAAAB4mp1bWIAAABBanVtZGNib3IAEQAQgAAAqgA4m3ETYzJwYS5hY3Rpb25zLnYyAAAAABhjMnNoL3m+5G52XK3C8Nv83osn0wAAAZljYm9yomdhY3Rpb25zgqJmYWN0aW9ua2MycGEub3BlbmVkanBhcmFtZXRlcnOha2luZ3JlZGllbnRzgaJjdXJseC1zZWxmI2p1bWJmPWMycGEuYXNzZXJ0aW9ucy9jMnBhLmluZ3JlZGllbnQudjNkaGFzaFgghsrliaa0Rej//6M3j3Jfb5thU6+0sIVFhHccmE5KR+ykZmFjdGlvbngdY29tLmFudGhyb3BpYy5jbGF1ZGUucHJvdmlkZWRqcGFyYW1ldGVyc6F4H2NvbS5hbnRocm9waWMub3JpZ2luLWNvbmZpZGVuY2VndW5rbm93bmtkZXNjcmlwdGlvbnhmQ2xhdWRlIHByb3ZpZGVkIHRoaXMgZmlsZSBhdCB0aGUgcmVxdWVzdCBvZiBhIHVzZXIgYW5kIG1heSBoYXZlIGNyZWF0ZWQgb3IgbW9kaWZpZWQgdGhlIGZpbGUgY29udGVudHMubXNvZnR3YXJlQWdlbnShZG5hbWVmQ2xhdWRlcmFsbEFjdGlvbnNJbmNsdWRlZPUAAADIanVtYgAAAEBqdW1kY2JvcgARABCAAACqADibcRNjMnBhLmhhc2guZGF0YQAAAAAYYzJzaD+k2ab06IDCo76MikCta50AAACAY2JvcqVjYWxnZnNoYTI1NmNwYWRNAAAAAAAAAAAAAAAAAGRoYXNoWCBhfhBQM5CQ02R8dR5DbEYhebYrrdEu+/ZCJ8auyl6+aWRuYW1lbmp1bWJmIG1hbmlmZXN0amV4Y2x1c2lvbnOBomVzdGFydBiWZmxlbmd0aBkeBAAAAj5qdW1iAAAAJ2p1bWRjMmNsABEAEIAAAKoAOJtxA2MycGEuY2xhaW0udjIAAAACD2Nib3KlY2FsZ2ZzaGEyNTZpc2lnbmF0dXJleE1zZWxmI2p1bWJmPS9jMnBhL3VybjpjMnBhOmFjMGEyYzFjLWY1MDQtNDQyYi1iYjc5LWFjN2U3ZjY3Zjk2NS9jMnBhLnNpZ25hdHVyZWppbnN0YW5jZUlEeCx4bXA6aWlkOmM4YmQ4YjE4LWE1ZDgtNGQxZi1hMzI3LTQ5NDQ0NDk3NThhYnJjcmVhdGVkX2Fzc2VydGlvbnODomN1cmx4LXNlbGYjanVtYmY9YzJwYS5hc3NlcnRpb25zL2MycGEuaW5ncmVkaWVudC52M2RoYXNoWCCGyuWJprRF6P//ozePcl9vm2FTr7SwhUWEdxyYTkpH7KJjdXJseCpzZWxmI2p1bWJmPWMycGEuYXNzZXJ0aW9ucy9jMnBhLmFjdGlvbnMudjJkaGFzaFggHUxFFZQAC5GSqBu4MkMJ1+Z5++SIdTKDqnRWbaDenmyiY3VybHgpc2VsZiNqdW1iZj1jMnBhLmFzc2VydGlvbnMvYzJwYS5oYXNoLmRhdGFkaGFzaFgg97ERc84WolhNPir/vWMdaZI2/0umGoo/drOcTJD0BZd0Y2xhaW1fZ2VuZXJhdG9yX2luZm+jZG5hbWVvQW50aHJvcGljIEZpbGVzZ3ZlcnNpb25lMS4wLjBrc3BlY1ZlcnNpb25lMi40LjAAABA4anVtYgAAAChqdW1kYzJjcwARABCAAACqADibcQNjMnBhLnNpZ25hdHVyZQAAABAIY2JvctKEWQISogEmGCFZAgowggIGMIIBjaADAgECAhRA5aAK7sI50L64g/oGQgU9Z1UTADAKBggqhkjOPQQDAzBJMRcwFQYDVQQKEw5BbnRocm9waWMsIFBCQzEuMCwGA1UEAxMlQW50aHJvcGljIENvbnRlbnQgQ3JlZGVudGlhbHMgUm9vdCBDQTAeFw0yNjA4MDcxODQzNTZaFw0yODA4MDYxOTQzNTZaMEQxFzAVBgNVBAoTDkFudGhyb3BpYywgUEJDMSkwJwYDVQQDEyBBbnRocm9waWMgQ2xhdWRlIENvbnRlbnQgU2lnbmluZzBZMBMGByqGSM49AgEGCCqGSM49AwEHA0IABJh6CmvLUBgFFNU0vUKlOVtE6djd17L5SuwX0LemFisBM3dkd/3cyjxFA3Qo5S46fX0/ihY0VZ7mfb9KF703t5OjWDBWMA4GA1UdDwEB/wQEAwIHgDAVBgNVHSUEDjAMBgorBgEEAYPoXgIBMAwGA1UdEwEB/wQCMAAwHwYDVR0jBBgwFoAUzlHiBIFOZFsj+OPEz5o+nMHXXMIwCgYIKoZIzj0EAwMDZwAwZAIwMXMdFJ4BetLLVY7ORuE9noqbbAZOZn/aArXyTwFAZfKrPzxF2vPoJNf1+UCdg1XGAjBwX1zd9WGqYkqmL5SFqw1QySjr1zJfpJM9+1rdDwSPLMOPOjKuiXjoU/pUUeG9RwmhY3BhZFkNngAAAAAAAAAAAAAAAAAAAAAAAAAAAAAAAAAAAAAAAAAAAAAAAAAAAAAAAAAAAAAAAAAAAAAAAAAAAAAAAAAAAAAAAAAAAAAAAAAAAAAAAAAAAAAAAAAAAAAAAAAAAAAAAAAAAAAAAAAAAAAAAAAAAAAAAAAAAAAAAAAAAAAAAAAAAAAAAAAAAAAAAAAAAAAAAAAAAAAAAAAAAAAAAAAAAAAAAAAAAAAAAAAAAAAAAAAAAAAAAAAAAAAAAAAAAAAAAAAAAAAAAAAAAAAAAAAAAAAAAAAAAAAAAAAAAAAAAAAAAAAAAAAAAAAAAAAAAAAAAAAAAAAAAAAAAAAAAAAAAAAAAAAAAAAAAAAAAAAAAAAAAAAAAAAAAAAAAAAAAAAAAAAAAAAAAAAAAAAAAAAAAAAAAAAAAAAAAAAAAAAAAAAAAAAAAAAAAAAAAAAAAAAAAAAAAAAAAAAAAAAAAAAAAAAAAAAAAAAAAAAAAAAAAAAAAAAAAAAAAAAAAAAAAAAAAAAAAAAAAAAAAAAAAAAAAAAAAAAAAAAAAAAAAAAAAAAAAAAAAAAAAAAAAAAAAAAAAAAAAAAAAAAAAAAAAAAAAAAAAAAAAAAAAAAAAAAAAAAAAAAAAAAAAAAAAAAAAAAAAAAAAAAAAAAAAAAAAAAAAAAAAAAAAAAAAAAAAAAAAAAAAAAAAAAAAAAAAAAAAAAAAAAAAAAAAAAAAAAAAAAAAAAAAAAAAAAAAAAAAAAAAAAAAAAAAAAAAAAAAAAAAAAAAAAAAAAAAAAAAAAAAAAAAAAAAAAAAAAAAAAAAAAAAAAAAAAAAAAAAAAAAAAAAAAAAAAAAAAAAAAAAAAAAAAAAAAAAAAAAAAAAAAAAAAAAAAAAAAAAAAAAAAAAAAAAAAAAAAAAAAAAAAAAAAAAAAAAAAAAAAAAAAAAAAAAAAAAAAAAAAAAAAAAAAAAAAAAAAAAAAAAAAAAAAAAAAAAAAAAAAAAAAAAAAAAAAAAAAAAAAAAAAAAAAAAAAAAAAAAAAAAAAAAAAAAAAAAAAAAAAAAAAAAAAAAAAAAAAAAAAAAAAAAAAAAAAAAAAAAAAAAAAAAAAAAAAAAAAAAAAAAAAAAAAAAAAAAAAAAAAAAAAAAAAAAAAAAAAAAAAAAAAAAAAAAAAAAAAAAAAAAAAAAAAAAAAAAAAAAAAAAAAAAAAAAAAAAAAAAAAAAAAAAAAAAAAAAAAAAAAAAAAAAAAAAAAAAAAAAAAAAAAAAAAAAAAAAAAAAAAAAAAAAAAAAAAAAAAAAAAAAAAAAAAAAAAAAAAAAAAAAAAAAAAAAAAAAAAAAAAAAAAAAAAAAAAAAAAAAAAAAAAAAAAAAAAAAAAAAAAAAAAAAAAAAAAAAAAAAAAAAAAAAAAAAAAAAAAAAAAAAAAAAAAAAAAAAAAAAAAAAAAAAAAAAAAAAAAAAAAAAAAAAAAAAAAAAAAAAAAAAAAAAAAAAAAAAAAAAAAAAAAAAAAAAAAAAAAAAAAAAAAAAAAAAAAAAAAAAAAAAAAAAAAAAAAAAAAAAAAAAAAAAAAAAAAAAAAAAAAAAAAAAAAAAAAAAAAAAAAAAAAAAAAAAAAAAAAAAAAAAAAAAAAAAAAAAAAAAAAAAAAAAAAAAAAAAAAAAAAAAAAAAAAAAAAAAAAAAAAAAAAAAAAAAAAAAAAAAAAAAAAAAAAAAAAAAAAAAAAAAAAAAAAAAAAAAAAAAAAAAAAAAAAAAAAAAAAAAAAAAAAAAAAAAAAAAAAAAAAAAAAAAAAAAAAAAAAAAAAAAAAAAAAAAAAAAAAAAAAAAAAAAAAAAAAAAAAAAAAAAAAAAAAAAAAAAAAAAAAAAAAAAAAAAAAAAAAAAAAAAAAAAAAAAAAAAAAAAAAAAAAAAAAAAAAAAAAAAAAAAAAAAAAAAAAAAAAAAAAAAAAAAAAAAAAAAAAAAAAAAAAAAAAAAAAAAAAAAAAAAAAAAAAAAAAAAAAAAAAAAAAAAAAAAAAAAAAAAAAAAAAAAAAAAAAAAAAAAAAAAAAAAAAAAAAAAAAAAAAAAAAAAAAAAAAAAAAAAAAAAAAAAAAAAAAAAAAAAAAAAAAAAAAAAAAAAAAAAAAAAAAAAAAAAAAAAAAAAAAAAAAAAAAAAAAAAAAAAAAAAAAAAAAAAAAAAAAAAAAAAAAAAAAAAAAAAAAAAAAAAAAAAAAAAAAAAAAAAAAAAAAAAAAAAAAAAAAAAAAAAAAAAAAAAAAAAAAAAAAAAAAAAAAAAAAAAAAAAAAAAAAAAAAAAAAAAAAAAAAAAAAAAAAAAAAAAAAAAAAAAAAAAAAAAAAAAAAAAAAAAAAAAAAAAAAAAAAAAAAAAAAAAAAAAAAAAAAAAAAAAAAAAAAAAAAAAAAAAAAAAAAAAAAAAAAAAAAAAAAAAAAAAAAAAAAAAAAAAAAAAAAAAAAAAAAAAAAAAAAAAAAAAAAAAAAAAAAAAAAAAAAAAAAAAAAAAAAAAAAAAAAAAAAAAAAAAAAAAAAAAAAAAAAAAAAAAAAAAAAAAAAAAAAAAAAAAAAAAAAAAAAAAAAAAAAAAAAAAAAAAAAAAAAAAAAAAAAAAAAAAAAAAAAAAAAAAAAAAAAAAAAAAAAAAAAAAAAAAAAAAAAAAAAAAAAAAAAAAAAAAAAAAAAAAAAAAAAAAAAAAAAAAAAAAAAAAAAAAAAAAAAAAAAAAAAAAAAAAAAAAAAAAAAAAAAAAAAAAAAAAAAAAAAAAAAAAAAAAAAAAAAAAAAAAAAAAAAAAAAAAAAAAAAAAAAAAAAAAAAAAAAAAAAAAAAAAAAAAAAAAAAAAAAAAAAAAAAAAAAAAAAAAAAAAAAAAAAAAAAAAAAAAAAAAAAAAAAAAAAAAAAAAAAAAAAAAAAAAAAAAAAAAAAAAAAAAAAAAAAAAAAAAAAAAAAAAAAAAAAAAAAAAAAAAAAAAAAAAAAAAAAAAAAAAAAAAAAAAAAAAAAAAAAAAAAAAAAAAAAAAAAAAAAAAAAAAAAAAAAAAAAAAAAAAAAAAAAAAAAAAAAAAAAAAAAAAAAAAAAAAAAAAAAAAAAAAAAAAAAAAAAAAAAAAAAAAAAAAAAAAAAAAAAAAAAAAAAAAAAAAAAAAAAAAAAAAAAAAAAAAAAAAAAAAAAAAAAAAAAAAAAAAAAAAAAAAAAAAAAAAAAAAAAAAAAAAAAAAAAAAAAAAAAAAAAAAAAAAAAAAAAAAAAAAAAAAAAAAAAAAAAAAAAAAAAAAAAAAAAAAAAAAAAAAAAAAAAAAAAAAAAAAAAAAAAAAAAAAAAAAAAAAAAAAAAAAAAAAAAAAAAAAAAAAAAAAAAAAAAAAAAAAAAAAAAAAAAAAAAAAAAAAAAAAAAAAAAAAAAAAAAAAAAAAAAAAAAAAAAAAAAAAAAAAAAAAAAAAAAAAAAAAAAAAAAAAAAAAAAAAAAAAAAAAAAAAAAAAAAAAAAAAAAAAAAAAAAAAAAAAAAAAAAAAAAAAAAAAAAAAAAAAAAAAAAAAAAAAAAAAAAAAAAAAAAAAAAAAAAAAAAAAAAAAAAAAAAAAAAAAAAAAAAAAAAAAAAAAAAAAAAAAAAAAAAAAAAAAAAAAAAAAAAAAAAAAAAAAAAAAAAAAAAAAAAAAAAAAAAAAAAAAAAAAAAAAAAAAAAAAAAAAAAAAAAAAAAAAAAAAAAAAAAAAAAAAAAAAAAAAAAAAAAAAAAAAAAAAAAAAAAAAAAAAAAAAAAAAAAAAAAAAAAAAAAAAAAAAAAAAAAAAAAAAAAAAAAAAAAAAAAAAAAAAAAAAAAAAAAAAAAAAAAAAAAAAAAAAAAAAAAAAAAAAAAAAAAAAAAAAAAAAAAAAAAAAAAAAAAAAAAAAAAAAAAAAAAAAAAAAAAAAAAAAAAAAAAAAAAAAAAAAAAAAAAAAAAAAAAAAAAAAAAAAAAAAAAAAAAAAAAAAAAAAAAAAAAAAAAAAAAAAAAAAAAAAAAAAAAAAAAAAAAAAAAAAAAAAAAAAAAAAAAAAAAAAAAAAAAAAAAAAAAAAAAAAAAAAAAAAAAAAAAAAAAAAAAAAAAAAAAAAAAAAAAAAAAAAAAAAAAAAAAAAAAAAAAAAAAAAAAAAAAAAAAAAAAAAAAAAAAAAAAAAAAAAAAAAAAAAAAAAAAAAAAAAAAAAAAAAAAAAAAAAAAAAAAAAAAAAAAAAAAAAAAAAAAAAAAAAAAAAAAAAAAAAAAAAAAAAAAAAAAAAAAAAAAAAAAAAAAAAAAAAAAAAAAAAAAAAAAAAAAAAAAAAAAAAAAAAAAAAAAAAAAAAAAAAAAAAAAAAAAAAAAAAAAAAAAAAAAAAAAAAAAAAAAAAAAAAAAAAAAAAAAAAAAAAAAAAAAAAAAAAAAAAAAAAAAAAAAAAAAAAAAAAAAAAAAAAAAAAAAAAAAAAAAAAAAAAAAAAAAAAAAAAAAAAAAAAAAAAAAAAAAAAAAAAAAAAAAAAAAAAAAAAAAAAAAAAAAAAAAAAAAAAAAAAAAAAAAAAAAAAAAAAAAAAAAAAAAAAAAAAAAAAAAAAAAAAAAAAAAAAAAAAAAAAAAAAAAAAAAAAAAAAAAAAAAAAAAAAAAAAAAAAAAAAAAAAAAAAAAAAAAAAAAAAAAAAAAAAAAAAAAAAAAAAAAAAAAAAAAAAAAAAAAAAAAAAAAAAPZYQPRXu4dAUwMt9vzMImFdVyvdgC541qSsOsat0fyeS2gwL+9N6PqvandS9k460WfK++zyeTqLfQ9Y6DbzjWnLljE=</c2pa:manifest></metadata>
  <defs>
    
    <pattern id="matrix2" width="28" height="52" patternUnits="userSpaceOnUse">
      <rect width="28" height="52" fill="#0D1117"/>
      <text x="2" y="12" font-family='Fira Code, Consolas, monospace' font-size="11" fill="#25BF3C" opacity="0.09">1</text><text x="2" y="25" font-family='Fira Code, Consolas, monospace' font-size="11" fill="#4FA8E0" opacity="0.09">ﾊ</text><text x="2" y="38" font-family='Fira Code, Consolas, monospace' font-size="11" fill="#4FA8E0" opacity="0.11">10</text><text x="2" y="51" font-family='Fira Code, Consolas, monospace' font-size="11" fill="#25BF3C" opacity="0.11">01</text>
    </pattern>

    
  </defs>
  <rect x="0" y="0" width="560" height="520" rx="10" ry="10" fill="#0D1117" stroke="#1F2A2E" stroke-width="1.5"/>
  <rect x="1" y="32" width="558" height="487" fill="url(#matrix2)"/>
  
  <rect x="0" y="0" width="560" height="32" fill="#161B22" rx="10" ry="10"/>
  <rect x="0" y="22" width="560" height="10" fill="#161B22"/>
  <circle cx="20" cy="16.0" r="6" fill="#FF5F56"/>
  <circle cx="40" cy="16.0" r="6" fill="#FFBD2E"/>
  <circle cx="60" cy="16.0" r="6" fill="#27C93F"/>
  <text x="280.0" y="20.0" text-anchor="middle" font-family='Fira Code, Consolas, monospace' font-size="12" fill="#5B6470">bycer-identity</text>

  <circle cx="183.9" cy="50.0" r="2.4" fill="#E6EDF3"/><circle cx="172.8" cy="61.5" r="2.3" fill="#E6EDF3"/><circle cx="183.9" cy="61.4" r="2.5" fill="#E6EDF3"/><circle cx="376.3" cy="61.5" r="2.6" fill="#E6EDF3"/><circle cx="387.2" cy="61.5" r="2.3" fill="#E6EDF3"/><circle cx="161.4" cy="72.8" r="2.7" fill="#E6EDF3"/><circle cx="195.3" cy="72.6" r="2.5" fill="#E6EDF3"/><circle cx="364.8" cy="72.8" r="2.6" fill="#E6EDF3"/><circle cx="172.8" cy="72.5" r="2.0" fill="#E6EDF3"/><circle cx="184.0" cy="72.6" r="2.0" fill="#E6EDF3"/><circle cx="375.8" cy="72.7" r="2.2" fill="#E6EDF3"/><circle cx="387.4" cy="72.6" r="1.9" fill="#E6EDF3"/><circle cx="398.4" cy="73.0" r="2.4" fill="#E6EDF3"/><circle cx="150.1" cy="84.1" r="2.6" fill="#E6EDF3"/><circle cx="206.7" cy="83.9" r="2.5" fill="#E6EDF3"/><circle cx="353.2" cy="84.1" r="2.7" fill="#E6EDF3"/><circle cx="364.9" cy="83.7" r="2.1" fill="#E6EDF3"/><circle cx="409.9" cy="83.7" r="2.5" fill="#E6EDF3"/><circle cx="161.1" cy="84.1" r="2.0" fill="#E6EDF3"/><circle cx="172.8" cy="84.1" r="2.0" fill="#E6EDF3"/><circle cx="184.0" cy="84.1" r="1.7" fill="#E6EDF3"/><circle cx="195.4" cy="84.1" r="1.9" fill="#E6EDF3"/><circle cx="376.0" cy="84.1" r="1.7" fill="#E6EDF3"/><circle cx="387.2" cy="84.1" r="2.0" fill="#E6EDF3"/><circle cx="398.9" cy="84.1" r="2.0" fill="#E6EDF3"/><circle cx="150.0" cy="95.2" r="2.4" fill="#E6EDF3"/><circle cx="161.3" cy="95.3" r="2.0" fill="#E6EDF3"/><circle cx="172.6" cy="95.3" r="2.0" fill="#E6EDF3"/><circle cx="206.5" cy="95.3" r="2.0" fill="#E6EDF3"/><circle cx="218.0" cy="95.5" r="2.1" fill="#E6EDF3"/><circle cx="229.2" cy="95.6" r="2.8" fill="#E6EDF3"/><circle cx="330.9" cy="95.2" r="2.5" fill="#E6EDF3"/><circle cx="342.4" cy="95.1" r="2.5" fill="#E6EDF3"/><circle cx="353.5" cy="95.3" r="2.0" fill="#E6EDF3"/><circle cx="387.4" cy="95.3" r="2.0" fill="#E6EDF3"/><circle cx="398.7" cy="95.3" r="2.0" fill="#E6EDF3"/><circle cx="410.0" cy="95.2" r="2.4" fill="#E6EDF3"/><circle cx="184.2" cy="95.6" r="1.9" fill="#E6EDF3"/><circle cx="194.9" cy="95.6" r="1.9" fill="#E6EDF3"/><circle cx="365.1" cy="95.6" r="1.9" fill="#E6EDF3"/><circle cx="375.8" cy="95.6" r="1.9" fill="#E6EDF3"/><circle cx="150.1" cy="106.7" r="2.6" fill="#E6EDF3"/><circle cx="161.3" cy="106.5" r="2.0" fill="#E6EDF3"/><circle cx="172.8" cy="106.7" r="1.9" fill="#E6EDF3"/><circle cx="184.2" cy="106.5" r="2.0" fill="#E6EDF3"/><circle cx="194.9" cy="106.5" r="2.0" fill="#E6EDF3"/><circle cx="206.4" cy="106.7" r="1.9" fill="#E6EDF3"/><circle cx="218.0" cy="106.7" r="1.9" fill="#E6EDF3"/><circle cx="229.5" cy="106.5" r="2.0" fill="#E6EDF3"/><circle cx="240.6" cy="106.7" r="2.3" fill="#E6EDF3"/><circle cx="251.6" cy="106.7" r="2.6" fill="#E6EDF3"/><circle cx="308.1" cy="106.7" r="2.5" fill="#E6EDF3"/><circle cx="319.6" cy="106.6" r="2.4" fill="#E6EDF3"/><circle cx="331.0" cy="106.5" r="2.2" fill="#E6EDF3"/><circle cx="342.0" cy="106.7" r="1.9" fill="#E6EDF3"/><circle cx="353.6" cy="106.7" r="1.9" fill="#E6EDF3"/><circle cx="365.1" cy="106.5" r="2.0" fill="#E6EDF3"/><circle cx="375.8" cy="106.5" r="2.0" fill="#E6EDF3"/><circle cx="387.2" cy="106.7" r="1.9" fill="#E6EDF3"/><circle cx="398.7" cy="106.5" r="2.0" fill="#E6EDF3"/><circle cx="410.0" cy="106.6" r="2.5" fill="#E6EDF3"/><circle cx="251.7" cy="118.1" r="2.6" fill="#E6EDF3"/><circle cx="161.1" cy="117.9" r="2.1" fill="#E6EDF3"/><circle cx="172.6" cy="117.8" r="1.9" fill="#E6EDF3"/><circle cx="184.2" cy="117.8" r="1.9" fill="#E6EDF3"/><circle cx="195.1" cy="117.7" r="1.7" fill="#E6EDF3"/><circle cx="206.5" cy="117.8" r="1.9" fill="#E6EDF3"/><circle cx="217.8" cy="117.8" r="1.9" fill="#E6EDF3"/><circle cx="229.2" cy="117.8" r="2.0" fill="#E6EDF3"/><circle cx="240.2" cy="117.9" r="2.2" fill="#E6EDF3"/><circle cx="263.0" cy="117.9" r="2.2" fill="#E6EDF3"/><circle cx="296.8" cy="117.9" r="2.1" fill="#E6EDF3"/><circle cx="308.3" cy="118.3" r="2.5" fill="#E6EDF3"/><circle cx="319.6" cy="118.0" r="2.3" fill="#E6EDF3"/><circle cx="330.8" cy="117.8" r="2.0" fill="#E6EDF3"/><circle cx="342.2" cy="117.8" r="1.9" fill="#E6EDF3"/><circle cx="353.5" cy="117.8" r="1.9" fill="#E6EDF3"/><circle cx="364.9" cy="117.7" r="1.7" fill="#E6EDF3"/><circle cx="376.0" cy="117.7" r="1.7" fill="#E6EDF3"/><circle cx="387.4" cy="117.8" r="1.9" fill="#E6EDF3"/><circle cx="398.9" cy="117.7" r="2.0" fill="#E6EDF3"/><circle cx="409.9" cy="118.1" r="2.5" fill="#E6EDF3"/><circle cx="161.6" cy="129.3" r="2.7" fill="#E6EDF3"/><circle cx="229.0" cy="128.9" r="2.5" fill="#E6EDF3"/><circle cx="331.0" cy="129.3" r="2.6" fill="#E6EDF3"/><circle cx="398.7" cy="129.3" r="2.3" fill="#E6EDF3"/><circle cx="172.8" cy="129.3" r="2.0" fill="#E6EDF3"/><circle cx="184.0" cy="129.3" r="1.7" fill="#E6EDF3"/><circle cx="195.1" cy="129.3" r="1.7" fill="#E6EDF3"/><circle cx="206.4" cy="129.3" r="2.0" fill="#E6EDF3"/><circle cx="218.0" cy="129.3" r="2.0" fill="#E6EDF3"/><circle cx="342.0" cy="129.3" r="2.0" fill="#E6EDF3"/><circle cx="353.6" cy="129.3" r="2.0" fill="#E6EDF3"/><circle cx="364.9" cy="129.3" r="1.7" fill="#E6EDF3"/><circle cx="376.0" cy="129.3" r="1.7" fill="#E6EDF3"/><circle cx="387.2" cy="129.3" r="2.0" fill="#E6EDF3"/><circle cx="172.8" cy="140.7" r="2.1" fill="#E6EDF3"/><circle cx="206.5" cy="140.5" r="2.0" fill="#E6EDF3"/><circle cx="217.7" cy="140.7" r="2.2" fill="#E6EDF3"/><circle cx="229.1" cy="140.4" r="2.4" fill="#E6EDF3"/><circle cx="240.6" cy="140.6" r="2.5" fill="#E6EDF3"/><circle cx="251.9" cy="140.3" r="2.5" fill="#E6EDF3"/><circle cx="263.0" cy="140.7" r="2.2" fill="#E6EDF3"/><circle cx="274.2" cy="140.3" r="2.3" fill="#E6EDF3"/><circle cx="285.8" cy="140.3" r="2.3" fill="#E6EDF3"/><circle cx="297.0" cy="140.7" r="2.2" fill="#E6EDF3"/><circle cx="308.1" cy="140.3" r="2.5" fill="#E6EDF3"/><circle cx="331.0" cy="140.6" r="2.5" fill="#E6EDF3"/><circle cx="342.2" cy="140.3" r="2.5" fill="#E6EDF3"/><circle cx="353.5" cy="140.5" r="2.0" fill="#E6EDF3"/><circle cx="387.2" cy="140.7" r="2.1" fill="#E6EDF3"/><circle cx="398.7" cy="140.3" r="2.5" fill="#E6EDF3"/><circle cx="184.2" cy="140.8" r="1.9" fill="#E6EDF3"/><circle cx="194.9" cy="140.8" r="1.9" fill="#E6EDF3"/><circle cx="365.1" cy="140.8" r="1.9" fill="#E6EDF3"/><circle cx="375.8" cy="140.8" r="1.9" fill="#E6EDF3"/><circle cx="172.6" cy="151.9" r="2.5" fill="#E6EDF3"/><circle cx="184.2" cy="151.7" r="2.0" fill="#E6EDF3"/><circle cx="194.9" cy="151.7" r="2.0" fill="#E6EDF3"/><circle cx="206.4" cy="151.9" r="2.3" fill="#E6EDF3"/><circle cx="217.6" cy="151.9" r="2.5" fill="#E6EDF3"/><circle cx="229.0" cy="151.9" r="2.3" fill="#E6EDF3"/><circle cx="240.6" cy="151.9" r="2.3" fill="#E6EDF3"/><circle cx="251.9" cy="151.9" r="2.5" fill="#E6EDF3"/><circle cx="262.8" cy="151.9" r="2.5" fill="#E6EDF3"/><circle cx="274.5" cy="151.9" r="2.5" fill="#E6EDF3"/><circle cx="285.5" cy="151.9" r="2.5" fill="#E6EDF3"/><circle cx="297.2" cy="151.9" r="2.5" fill="#E6EDF3"/><circle cx="308.3" cy="151.7" r="2.0" fill="#E6EDF3"/><circle cx="319.7" cy="151.9" r="2.5" fill="#E6EDF3"/><circle cx="331.0" cy="151.9" r="2.3" fill="#E6EDF3"/><circle cx="342.4" cy="151.9" r="2.5" fill="#E6EDF3"/><circle cx="353.3" cy="151.9" r="2.5" fill="#E6EDF3"/><circle cx="365.1" cy="151.7" r="2.0" fill="#E6EDF3"/><circle cx="375.8" cy="151.7" r="2.0" fill="#E6EDF3"/><circle cx="387.6" cy="151.9" r="2.5" fill="#E6EDF3"/><circle cx="172.3" cy="163.2" r="2.5" fill="#E6EDF3"/><circle cx="183.9" cy="163.0" r="2.2" fill="#E6EDF3"/><circle cx="195.2" cy="163.0" r="2.0" fill="#E6EDF3"/><circle cx="206.7" cy="163.6" r="2.5" fill="#E6EDF3"/><circle cx="217.5" cy="163.4" r="2.4" fill="#E6EDF3"/><circle cx="229.2" cy="163.0" r="2.0" fill="#E6EDF3"/><circle cx="240.6" cy="163.3" r="2.5" fill="#E6EDF3"/><circle cx="262.7" cy="163.4" r="2.4" fill="#E6EDF3"/><circle cx="274.3" cy="163.4" r="2.4" fill="#E6EDF3"/><circle cx="285.8" cy="163.3" r="2.5" fill="#E6EDF3"/><circle cx="297.0" cy="163.1" r="2.2" fill="#E6EDF3"/><circle cx="307.9" cy="163.4" r="2.4" fill="#E6EDF3"/><circle cx="319.6" cy="163.0" r="2.0" fill="#E6EDF3"/><circle cx="330.8" cy="163.0" r="2.0" fill="#E6EDF3"/><circle cx="342.3" cy="163.1" r="2.2" fill="#E6EDF3"/><circle cx="353.1" cy="163.4" r="2.4" fill="#E6EDF3"/><circle cx="365.0" cy="163.1" r="2.2" fill="#E6EDF3"/><circle cx="375.8" cy="163.1" r="2.2" fill="#E6EDF3"/><circle cx="387.7" cy="163.4" r="2.4" fill="#E6EDF3"/><circle cx="172.5" cy="174.3" r="2.2" fill="#E6EDF3"/><circle cx="195.3" cy="174.3" r="2.4" fill="#E6EDF3"/><circle cx="206.9" cy="174.4" r="2.5" fill="#E6EDF3"/><circle cx="240.2" cy="174.3" r="2.2" fill="#E6EDF3"/><circle cx="251.8" cy="174.3" r="2.2" fill="#E6EDF3"/><circle cx="285.6" cy="174.2" r="2.1" fill="#E6EDF3"/><circle cx="296.8" cy="174.3" r="2.1" fill="#E6EDF3"/><circle cx="353.4" cy="174.3" r="2.2" fill="#E6EDF3"/><circle cx="364.7" cy="174.3" r="2.4" fill="#E6EDF3"/><circle cx="387.2" cy="174.3" r="2.1" fill="#E6EDF3"/><circle cx="184.1" cy="174.5" r="2.1" fill="#E6EDF3"/><circle cx="218.0" cy="174.5" r="2.0" fill="#E6EDF3"/><circle cx="229.2" cy="174.5" r="1.7" fill="#E6EDF3"/><circle cx="262.9" cy="174.5" r="2.1" fill="#E6EDF3"/><circle cx="274.6" cy="174.5" r="2.1" fill="#E6EDF3"/><circle cx="308.2" cy="174.5" r="2.1" fill="#E6EDF3"/><circle cx="319.8" cy="174.5" r="2.1" fill="#E6EDF3"/><circle cx="330.8" cy="174.4" r="2.0" fill="#E6EDF3"/><circle cx="342.0" cy="174.5" r="2.0" fill="#E6EDF3"/><circle cx="375.9" cy="174.5" r="2.1" fill="#E6EDF3"/><circle cx="172.6" cy="185.6" r="2.5" fill="#E6EDF3"/><circle cx="184.0" cy="185.8" r="2.1" fill="#E6EDF3"/><circle cx="195.4" cy="185.8" r="2.5" fill="#E6EDF3"/><circle cx="206.4" cy="185.9" r="2.1" fill="#E6EDF3"/><circle cx="217.8" cy="185.7" r="2.0" fill="#E6EDF3"/><circle cx="229.0" cy="185.5" r="2.3" fill="#E6EDF3"/><circle cx="240.5" cy="185.6" r="2.5" fill="#E6EDF3"/><circle cx="251.9" cy="185.5" r="2.5" fill="#E6EDF3"/><circle cx="263.2" cy="185.9" r="2.1" fill="#E6EDF3"/><circle cx="274.4" cy="185.8" r="2.3" fill="#E6EDF3"/><circle cx="285.8" cy="185.7" r="2.2" fill="#E6EDF3"/><circle cx="296.8" cy="185.9" r="2.1" fill="#E6EDF3"/><circle cx="308.3" cy="185.7" r="2.2" fill="#E6EDF3"/><circle cx="319.7" cy="185.8" r="2.1" fill="#E6EDF3"/><circle cx="342.2" cy="185.7" r="2.0" fill="#E6EDF3"/><circle cx="353.6" cy="185.9" r="2.1" fill="#E6EDF3"/><circle cx="364.8" cy="185.7" r="2.4" fill="#E6EDF3"/><circle cx="376.0" cy="185.8" r="2.3" fill="#E6EDF3"/><circle cx="387.4" cy="185.6" r="2.5" fill="#E6EDF3"/><circle cx="330.6" cy="186.0" r="1.9" fill="#E6EDF3"/><circle cx="184.2" cy="196.9" r="2.0" fill="#E6EDF3"/><circle cx="195.2" cy="197.1" r="2.2" fill="#E6EDF3"/><circle cx="206.4" cy="197.1" r="1.9" fill="#E6EDF3"/><circle cx="218.0" cy="197.1" r="1.9" fill="#E6EDF3"/><circle cx="229.0" cy="197.1" r="2.3" fill="#E6EDF3"/><circle cx="240.6" cy="197.1" r="2.3" fill="#E6EDF3"/><circle cx="251.7" cy="196.9" r="2.0" fill="#E6EDF3"/><circle cx="263.1" cy="196.9" r="2.0" fill="#E6EDF3"/><circle cx="274.2" cy="197.1" r="2.3" fill="#E6EDF3"/><circle cx="285.6" cy="197.1" r="2.2" fill="#E6EDF3"/><circle cx="296.8" cy="197.1" r="1.9" fill="#E6EDF3"/><circle cx="308.3" cy="196.9" r="2.0" fill="#E6EDF3"/><circle cx="319.9" cy="196.9" r="2.0" fill="#E6EDF3"/><circle cx="330.5" cy="196.9" r="2.0" fill="#E6EDF3"/><circle cx="342.0" cy="197.1" r="1.9" fill="#E6EDF3"/><circle cx="353.4" cy="197.1" r="2.1" fill="#E6EDF3"/><circle cx="364.6" cy="197.1" r="2.3" fill="#E6EDF3"/><circle cx="375.8" cy="196.9" r="2.0" fill="#E6EDF3"/><circle cx="387.2" cy="197.1" r="2.6" fill="#E6EDF3"/><circle cx="183.9" cy="208.6" r="2.4" fill="#E6EDF3"/><circle cx="194.9" cy="208.3" r="1.9" fill="#E6EDF3"/><circle cx="206.5" cy="208.3" r="1.9" fill="#E6EDF3"/><circle cx="217.8" cy="208.3" r="1.9" fill="#E6EDF3"/><circle cx="229.1" cy="208.2" r="2.2" fill="#E6EDF3"/><circle cx="240.6" cy="208.5" r="2.5" fill="#E6EDF3"/><circle cx="251.9" cy="208.8" r="2.5" fill="#E6EDF3"/><circle cx="263.2" cy="208.4" r="2.1" fill="#E6EDF3"/><circle cx="274.4" cy="208.3" r="2.0" fill="#E6EDF3"/><circle cx="285.6" cy="208.3" r="2.0" fill="#E6EDF3"/><circle cx="296.8" cy="208.1" r="2.0" fill="#E6EDF3"/><circle cx="308.4" cy="208.1" r="2.0" fill="#E6EDF3"/><circle cx="319.9" cy="208.3" r="1.9" fill="#E6EDF3"/><circle cx="330.8" cy="208.1" r="1.7" fill="#E6EDF3"/><circle cx="342.2" cy="208.3" r="1.9" fill="#E6EDF3"/><circle cx="353.6" cy="208.1" r="2.0" fill="#E6EDF3"/><circle cx="364.6" cy="208.4" r="2.1" fill="#E6EDF3"/><circle cx="375.8" cy="208.4" r="2.2" fill="#E6EDF3"/><circle cx="183.7" cy="219.8" r="2.6" fill="#E6EDF3"/><circle cx="240.5" cy="219.6" r="2.5" fill="#E6EDF3"/><circle cx="251.8" cy="219.5" r="2.2" fill="#E6EDF3"/><circle cx="274.2" cy="219.8" r="2.6" fill="#E6EDF3"/><circle cx="376.2" cy="219.8" r="2.5" fill="#E6EDF3"/><circle cx="195.4" cy="219.8" r="1.9" fill="#E6EDF3"/><circle cx="206.4" cy="219.8" r="2.0" fill="#E6EDF3"/><circle cx="218.0" cy="219.8" r="2.0" fill="#E6EDF3"/><circle cx="229.0" cy="219.8" r="2.3" fill="#E6EDF3"/><circle cx="285.4" cy="219.8" r="2.1" fill="#E6EDF3"/><circle cx="296.8" cy="219.8" r="2.0" fill="#E6EDF3"/><circle cx="308.4" cy="219.8" r="2.0" fill="#E6EDF3"/><circle cx="319.7" cy="219.8" r="1.7" fill="#E6EDF3"/><circle cx="330.8" cy="219.8" r="1.7" fill="#E6EDF3"/><circle cx="342.0" cy="219.8" r="2.0" fill="#E6EDF3"/><circle cx="353.6" cy="219.8" r="2.0" fill="#E6EDF3"/><circle cx="365.0" cy="219.8" r="2.1" fill="#E6EDF3"/><circle cx="183.7" cy="231.0" r="2.5" fill="#E6EDF3"/><circle cx="195.1" cy="231.0" r="2.1" fill="#E6EDF3"/><circle cx="206.5" cy="231.0" r="2.0" fill="#E6EDF3"/><circle cx="217.8" cy="231.0" r="2.0" fill="#E6EDF3"/><circle cx="229.2" cy="231.0" r="2.1" fill="#E6EDF3"/><circle cx="240.5" cy="230.9" r="2.5" fill="#E6EDF3"/><circle cx="285.7" cy="230.9" r="2.4" fill="#E6EDF3"/><circle cx="296.9" cy="231.0" r="2.0" fill="#E6EDF3"/><circle cx="308.3" cy="231.0" r="2.0" fill="#E6EDF3"/><circle cx="342.2" cy="231.0" r="2.0" fill="#E6EDF3"/><circle cx="353.5" cy="231.0" r="2.0" fill="#E6EDF3"/><circle cx="364.8" cy="230.9" r="2.4" fill="#E6EDF3"/><circle cx="319.9" cy="231.2" r="1.9" fill="#E6EDF3"/><circle cx="330.6" cy="231.2" r="1.9" fill="#E6EDF3"/><circle cx="195.2" cy="242.2" r="2.4" fill="#E6EDF3"/><circle cx="206.4" cy="242.4" r="1.9" fill="#E6EDF3"/><circle cx="218.0" cy="242.4" r="1.9" fill="#E6EDF3"/><circle cx="229.5" cy="242.1" r="2.0" fill="#E6EDF3"/><circle cx="240.6" cy="242.4" r="2.3" fill="#E6EDF3"/><circle cx="285.7" cy="242.2" r="2.5" fill="#E6EDF3"/><circle cx="297.2" cy="242.4" r="2.5" fill="#E6EDF3"/><circle cx="308.3" cy="242.1" r="2.0" fill="#E6EDF3"/><circle cx="319.9" cy="242.1" r="2.0" fill="#E6EDF3"/><circle cx="330.5" cy="242.1" r="2.0" fill="#E6EDF3"/><circle cx="342.0" cy="242.4" r="1.9" fill="#E6EDF3"/><circle cx="353.6" cy="242.4" r="1.9" fill="#E6EDF3"/><circle cx="364.6" cy="242.4" r="2.3" fill="#E6EDF3"/><circle cx="195.3" cy="253.5" r="2.5" fill="#E6EDF3"/><circle cx="240.5" cy="253.5" r="2.5" fill="#E6EDF3"/><circle cx="297.3" cy="253.6" r="2.5" fill="#E6EDF3"/><circle cx="206.4" cy="253.3" r="2.0" fill="#E6EDF3"/><circle cx="217.8" cy="253.5" r="1.9" fill="#E6EDF3"/><circle cx="229.2" cy="253.5" r="2.0" fill="#E6EDF3"/><circle cx="285.7" cy="253.8" r="2.4" fill="#E6EDF3"/><circle cx="308.2" cy="253.6" r="2.2" fill="#E6EDF3"/><circle cx="319.4" cy="253.3" r="1.9" fill="#E6EDF3"/><circle cx="330.8" cy="253.3" r="1.7" fill="#E6EDF3"/><circle cx="342.2" cy="253.5" r="1.9" fill="#E6EDF3"/><circle cx="353.5" cy="253.5" r="1.9" fill="#E6EDF3"/><circle cx="364.8" cy="253.5" r="2.0" fill="#E6EDF3"/><circle cx="376.3" cy="253.7" r="2.5" fill="#E6EDF3"/><circle cx="206.4" cy="264.7" r="2.1" fill="#E6EDF3"/><circle cx="229.4" cy="264.7" r="2.2" fill="#E6EDF3"/><circle cx="297.3" cy="264.7" r="2.5" fill="#E6EDF3"/><circle cx="308.2" cy="264.7" r="2.2" fill="#E6EDF3"/><circle cx="376.3" cy="265.0" r="2.6" fill="#E6EDF3"/><circle cx="218.0" cy="265.0" r="2.0" fill="#E6EDF3"/><circle cx="319.4" cy="265.0" r="1.9" fill="#E6EDF3"/><circle cx="330.8" cy="265.0" r="1.7" fill="#E6EDF3"/><circle cx="342.0" cy="265.0" r="2.0" fill="#E6EDF3"/><circle cx="353.6" cy="265.0" r="2.0" fill="#E6EDF3"/><circle cx="364.6" cy="265.0" r="1.9" fill="#E6EDF3"/><circle cx="206.4" cy="276.0" r="2.6" fill="#E6EDF3"/><circle cx="217.8" cy="276.2" r="2.0" fill="#E6EDF3"/><circle cx="229.0" cy="276.2" r="2.5" fill="#E6EDF3"/><circle cx="297.2" cy="276.0" r="2.5" fill="#E6EDF3"/><circle cx="308.1" cy="276.2" r="2.3" fill="#E6EDF3"/><circle cx="342.2" cy="276.2" r="2.0" fill="#E6EDF3"/><circle cx="353.5" cy="276.2" r="2.0" fill="#E6EDF3"/><circle cx="376.1" cy="276.1" r="2.4" fill="#E6EDF3"/><circle cx="319.9" cy="276.4" r="1.9" fill="#E6EDF3"/><circle cx="330.6" cy="276.4" r="1.9" fill="#E6EDF3"/><circle cx="365.1" cy="276.4" r="1.9" fill="#E6EDF3"/><circle cx="206.7" cy="287.6" r="2.5" fill="#E6EDF3"/><circle cx="217.8" cy="287.4" r="2.0" fill="#E6EDF3"/><circle cx="229.0" cy="287.6" r="2.6" fill="#E6EDF3"/><circle cx="297.2" cy="287.6" r="2.5" fill="#E6EDF3"/><circle cx="308.1" cy="287.6" r="2.5" fill="#E6EDF3"/><circle cx="319.7" cy="287.3" r="2.1" fill="#E6EDF3"/><circle cx="330.5" cy="287.4" r="2.0" fill="#E6EDF3"/><circle cx="342.0" cy="287.6" r="1.9" fill="#E6EDF3"/><circle cx="353.6" cy="287.6" r="1.9" fill="#E6EDF3"/><circle cx="365.1" cy="287.4" r="2.0" fill="#E6EDF3"/><circle cx="376.1" cy="287.5" r="2.2" fill="#E6EDF3"/><circle cx="217.6" cy="299.0" r="2.5" fill="#E6EDF3"/><circle cx="308.1" cy="298.9" r="2.7" fill="#E6EDF3"/><circle cx="319.4" cy="298.9" r="2.5" fill="#E6EDF3"/><circle cx="330.8" cy="298.7" r="2.0" fill="#E6EDF3"/><circle cx="342.2" cy="298.7" r="1.9" fill="#E6EDF3"/><circle cx="353.5" cy="298.7" r="1.9" fill="#E6EDF3"/><circle cx="364.8" cy="298.7" r="2.0" fill="#E6EDF3"/><circle cx="376.3" cy="298.9" r="2.5" fill="#E6EDF3"/><circle cx="319.4" cy="310.2" r="2.6" fill="#E6EDF3"/><circle cx="331.0" cy="309.8" r="2.5" fill="#E6EDF3"/><circle cx="342.0" cy="309.9" r="2.1" fill="#E6EDF3"/><circle cx="353.6" cy="309.9" r="2.1" fill="#E6EDF3"/><circle cx="364.6" cy="309.8" r="2.5" fill="#E6EDF3"/><circle cx="331.0" cy="321.5" r="2.5" fill="#E6EDF3"/><circle cx="342.4" cy="321.2" r="2.5" fill="#E6EDF3"/><circle cx="353.3" cy="321.2" r="2.5" fill="#E6EDF3"/><circle cx="364.8" cy="321.3" r="2.4" fill="#E6EDF3"/><circle cx="353.3" cy="332.8" r="2.5" fill="#E6EDF3"/><rect x="40" y="354.53333333333336" width="480" height="46" rx="6" fill="#0B0E14" stroke="#1F2A2E" stroke-width="1.2"/><text x="280.0" y="382.53333333333336" text-anchor="middle" font-family='Fira Code, Consolas, monospace' font-size="15" fill="#39FF6A" opacity="0">01100010 01111001 01100011 01100101 01110010<animate attributeName="opacity" values="1;1;0;0" keyTimes="0;0.2000;0.2500;1" dur="8.0s" begin="0.000s" repeatCount="indefinite"/></text><text x="280.0" y="382.53333333333336" text-anchor="middle" font-family='Fira Code, Consolas, monospace' font-size="15" fill="#39FF6A" opacity="0">Competitive Programmer<animate attributeName="opacity" values="1;1;0;0" keyTimes="0;0.2000;0.2500;1" dur="8.0s" begin="2.000s" repeatCount="indefinite"/></text><text x="280.0" y="382.53333333333336" text-anchor="middle" font-family='Fira Code, Consolas, monospace' font-size="15" fill="#39FF6A" opacity="0">Cyber Security Student<animate attributeName="opacity" values="1;1;0;0" keyTimes="0;0.2000;0.2500;1" dur="8.0s" begin="4.000s" repeatCount="indefinite"/></text><text x="280.0" y="382.53333333333336" text-anchor="middle" font-family='Fira Code, Consolas, monospace' font-size="15" fill="#39FF6A" opacity="0">Bycer<animate attributeName="opacity" values="1;1;0;0" keyTimes="0;0.2000;0.2500;1" dur="8.0s" begin="6.000s" repeatCount="indefinite"/></text>
</svg>
